<svg width="1000" height="1263" viewBox="0 0 1000 1263" fill="none" xmlns="http://www.w3.org/2000/svg">
<path d="M894.146 609.4C952.607 393.677 823.535 169.82 605.854 109.4C388.174 48.98 164.316 174.878 105.854 390.6C47.3926 606.323 176.465 830.18 394.146 890.6C611.826 951.02 835.684 825.122 894.146 609.4Z" stroke="white" stroke-width="40" stroke-miterlimit="10"/>
<path d="M303.889 261.264C298.432 267.057 293.169 273.267 288.245 279.6C283.224 285.884 278.494 292.365 273.983 298.968C264.96 312.174 256.738 325.797 249.728 339.911C242.573 353.927 236.533 368.385 231.78 383.089C226.807 397.694 223.121 412.594 220.768 427.567C218.439 442.565 218.682 457.76 219.652 472.537C219.967 476.243 220.258 479.925 220.404 483.607C220.622 487.289 221.107 490.947 221.277 494.629C221.374 496.47 221.495 498.311 221.52 500.152C221.665 501.993 221.908 503.809 221.981 505.675C222.272 509.357 222.32 513.063 222.538 516.794L223.363 528.012C223.484 529.902 223.46 531.817 223.703 533.682C223.921 535.572 224.163 537.438 224.309 539.352C224.649 543.157 224.988 546.986 225.255 550.865C225.789 554.694 226.201 558.572 226.589 562.5C226.807 564.464 226.929 566.452 227.098 568.44C227.292 570.428 227.656 572.368 227.85 574.38C228.36 578.357 228.772 582.432 229.136 586.556C229.936 594.803 231.173 603.026 231.319 612.06L227.001 614.293C223.654 611.397 220.477 608.378 217.445 605.211C214.462 602.02 211.308 598.878 208.737 595.392C206.118 591.931 203.523 588.421 201.024 584.813C199.763 583.021 198.502 581.204 197.362 579.339C196.27 577.449 195.13 575.583 194.112 573.644C191.977 569.815 189.867 565.936 187.878 562.009C185.986 558.032 184.41 553.909 182.712 549.809C179.171 541.66 177.085 532.995 174.611 524.379C170.73 506.951 169.372 488.762 171.652 470.917C173.907 453.071 178.225 435.717 182.954 418.829C187.999 401.99 194.451 385.74 202.14 370.3C210.047 354.958 219.167 340.451 229.233 326.828C239.444 313.303 250.529 300.637 262.462 288.977C274.42 277.342 287.032 266.615 300.93 257.41L303.889 261.264Z" fill="white"/>
<path d="M815.49 626.564C820.893 606.626 810.088 586.249 791.356 581.049C772.624 575.85 753.058 587.798 747.655 607.736C742.251 627.674 753.057 648.052 771.789 653.251C790.521 658.45 810.086 646.502 815.49 626.564Z" fill="white"/>
<path d="M818.507 547.517C820.944 538.522 815.925 529.289 807.295 526.893C798.665 524.498 789.693 529.848 787.256 538.843C784.818 547.838 789.838 557.072 798.467 559.467C807.097 561.862 816.069 556.512 818.507 547.517Z" fill="white"/>
<path d="M381.025 1226.98C382.929 1226.98 384.69 1226.69 386.6 1226.25C395.566 1223.76 401.963 1215.85 402.663 1206.62C404.049 1189.34 404.861 1171.03 405.086 1152.86C405.334 1132.8 404.846 1113.02 404.043 1095.01C403.741 1083.87 394.625 1074.79 383.349 1074.5H382.91C371.045 1074.5 361.257 1084.17 361.109 1096.18L361.09 1097.64C361.899 1115.22 362.238 1135.14 361.992 1155.06L361.909 1161.8C359.756 1170 354.895 1184.06 343.909 1184.06C335.999 1184.06 330.662 1177.32 330.644 1166.92L331.515 1096.47C331.662 1084.61 322.113 1074.94 310.248 1074.94H309.955C298.235 1075.09 288.74 1084.75 288.595 1096.47L287.724 1166.92C287.529 1182.74 291.444 1197.83 301.115 1209.4C310.788 1220.83 321.259 1226.98 336.493 1226.98C348.212 1226.98 356.611 1223.02 363.271 1217.46C367.299 1223.46 373.993 1226.98 381.025 1226.98ZM297.639 1135.14C296.467 1135.14 295.452 1134.26 295.467 1133.09C295.409 1125.91 295.337 1119.91 295.398 1114.93C295.494 1107.16 295.856 1101.6 296.789 1097.2C298.491 1089.88 302.2 1086.07 308.239 1083.43L309.119 1083.29C310.438 1083.29 311.304 1084.31 311.29 1085.49C311.281 1086.22 310.83 1087.1 309.948 1087.39C304.645 1089.73 302.423 1091.78 301.026 1098.08C300.099 1102.04 299.733 1107.9 299.632 1116.1L299.713 1133.24C299.7 1134.26 298.664 1135.14 297.639 1135.14ZM371.613 1135.14C370.441 1135.14 369.427 1134.26 369.443 1132.94L368.751 1094.13C368.766 1092.96 369.657 1091.93 370.829 1091.93C372.001 1091.93 373.015 1092.81 373.001 1093.98L373.838 1132.94C373.823 1134.11 372.785 1135.14 371.613 1135.14ZM296.955 1154.91C295.783 1154.91 294.917 1153.89 294.931 1152.72L295.202 1142.61C295.362 1141.58 296.107 1140.56 297.132 1140.56H297.425C298.597 1140.56 299.61 1141.58 299.595 1142.76L299.177 1152.86C299.163 1154.04 298.127 1154.91 296.955 1154.91ZM351.998 1193.29C351.265 1193.29 350.392 1192.85 349.962 1192.12L349.826 1191.24C349.837 1190.36 350.285 1189.63 351.023 1189.19C358.537 1185.67 364.502 1177.18 366.672 1167.51C366.831 1166.49 367.719 1165.75 368.745 1165.75C369.916 1165.75 370.783 1166.78 370.768 1167.95L370.763 1168.39C368.433 1179.08 362.013 1188.9 352.879 1193.14L351.998 1193.29ZM490.302 1226.98C507.001 1226.98 523.079 1218.04 532.911 1204.71C542.598 1191.39 547.199 1174.69 547.436 1155.5L547.447 1154.62C547.792 1126.64 542.27 1099.4 520.205 1083.14C512.657 1077.58 502.587 1074.5 492.48 1074.5L489.402 1074.65C485.736 1074.94 481.919 1075.67 478.389 1076.84C477.067 1077.14 475.743 1077.58 474.564 1078.16C475.307 1065.42 476.195 1052.82 477.223 1040.81L477.396 1038.61C477.541 1026.9 468.139 1017.23 456.128 1017.23H455.395C444.403 1017.67 435.361 1026.31 434.493 1037.3C431.941 1066 430.238 1097.06 429.871 1126.79C429.512 1155.79 430.342 1183.48 432.541 1207.06C433.027 1215.11 438.215 1222 445.648 1225.07C448.272 1226.1 450.903 1226.54 453.54 1226.54C458.667 1226.54 463.669 1224.78 467.666 1221.41C474.069 1224.78 481.659 1226.98 490.302 1226.98ZM440.612 1075.53C439.294 1075.53 438.427 1074.5 438.444 1073.18C439.104 1055.31 439.526 1044.91 441.222 1038.03C442.92 1031 446.043 1027.19 450.917 1023.97C451.212 1023.82 451.507 1023.67 451.946 1023.67H452.093C453.411 1023.67 454.277 1024.7 454.263 1025.87C454.256 1026.46 453.954 1027.19 453.216 1027.63C448.787 1030.41 446.855 1032.61 445.459 1038.91C443.916 1045.21 443.35 1055.46 442.69 1073.33C442.675 1074.5 441.784 1075.53 440.612 1075.53ZM474.589 1087.98C473.856 1087.98 473.274 1087.68 472.842 1087.1C472.554 1086.66 472.413 1086.22 472.417 1085.93C472.426 1085.19 472.875 1084.46 473.466 1084.02C477.305 1081.53 483.485 1079.33 489.498 1078.75H491.695C493.013 1078.75 494.184 1078.89 495.354 1079.04C496.524 1079.19 497.243 1080.21 497.231 1081.24L497.227 1081.53C496.921 1082.56 496.034 1083.29 495.008 1083.29H494.569C493.838 1083.14 492.813 1083.14 491.934 1083.14C486.367 1083.14 479.161 1085.49 475.764 1087.68C475.468 1087.98 475.028 1087.98 474.589 1087.98ZM439.928 1095.3C438.756 1095.3 437.89 1094.27 437.904 1093.1L438.322 1083C438.337 1081.82 439.228 1080.8 440.547 1080.8C441.719 1080.8 442.585 1081.82 442.57 1083L442.152 1093.1C442.138 1094.27 441.246 1095.3 439.928 1095.3ZM488.635 1184.06C478.821 1184.06 474.712 1172.78 473.204 1164.43C472.756 1153.3 472.754 1141.58 472.901 1129.72C475.469 1123.42 480.09 1116.98 487.121 1116.98C494.592 1116.98 504.878 1126.21 504.557 1152.13C504.264 1175.86 496.546 1184.06 488.635 1184.06ZM497.012 1193.73C496.28 1193.73 495.553 1193.29 495.12 1192.7C494.977 1192.41 494.836 1191.97 494.842 1191.53C494.851 1190.8 495.298 1190.21 495.889 1189.77C501.944 1185.82 507.487 1175.86 508.874 1170.29C509.033 1169.27 509.921 1168.54 510.946 1168.54C512.118 1168.54 513.131 1169.56 513.117 1170.73L512.965 1171.17C511.413 1178.2 505.722 1188.31 498.189 1193.29C497.893 1193.58 497.451 1193.73 497.012 1193.73ZM632.685 1226.98C649.384 1226.98 665.461 1218.04 675.294 1204.71C684.98 1191.39 689.581 1174.69 689.819 1155.5L689.829 1154.62C690.175 1126.64 684.653 1099.4 662.588 1083.14C655.04 1077.58 644.97 1074.5 634.863 1074.5L631.785 1074.65C628.119 1074.94 624.302 1075.67 620.771 1076.84C619.449 1077.14 618.126 1077.58 616.947 1078.16C617.69 1065.42 618.578 1052.82 619.606 1040.81L619.779 1038.61C619.924 1026.9 610.522 1017.23 598.51 1017.23H597.778C586.786 1017.67 577.744 1026.31 576.876 1037.3C574.323 1066 572.621 1097.06 572.254 1126.79C571.895 1155.79 572.725 1183.48 574.923 1207.06C575.41 1215.11 580.598 1222 588.031 1225.07C590.655 1226.1 593.286 1226.54 595.923 1226.54C601.05 1226.54 606.052 1224.78 610.049 1221.41C616.452 1224.78 624.042 1226.98 632.685 1226.98ZM582.995 1075.53C581.676 1075.53 580.81 1074.5 580.826 1073.18C581.487 1055.31 581.908 1044.91 583.605 1038.03C585.303 1031 588.426 1027.19 593.3 1023.97C593.595 1023.82 593.89 1023.67 594.329 1023.67H594.476C595.794 1023.67 596.66 1024.7 596.646 1025.87C596.638 1026.46 596.336 1027.19 595.599 1027.63C591.17 1030.41 589.238 1032.61 587.842 1038.91C586.299 1045.21 585.733 1055.46 585.073 1073.33C585.058 1074.5 584.167 1075.53 582.995 1075.53ZM616.972 1087.98C616.239 1087.98 615.657 1087.68 615.225 1087.1C614.937 1086.66 614.796 1086.22 614.8 1085.93C614.809 1085.19 615.257 1084.46 615.849 1084.02C619.688 1081.53 625.868 1079.33 631.881 1078.75H634.078C635.396 1078.75 636.566 1078.89 637.736 1079.04C638.906 1079.19 639.626 1080.21 639.614 1081.24L639.61 1081.53C639.304 1082.56 638.416 1083.29 637.391 1083.29H636.951C636.221 1083.14 635.195 1083.14 634.317 1083.14C628.75 1083.14 621.543 1085.49 618.147 1087.68C617.851 1087.98 617.411 1087.98 616.972 1087.98ZM582.311 1095.3C581.139 1095.3 580.273 1094.27 580.287 1093.1L580.705 1083C580.72 1081.82 581.611 1080.8 582.93 1080.8C584.101 1080.8 584.968 1081.82 584.953 1083L584.535 1093.1C584.521 1094.27 583.629 1095.3 582.311 1095.3ZM631.018 1184.06C621.204 1184.06 617.095 1172.78 615.587 1164.43C615.139 1153.3 615.137 1141.58 615.284 1129.72C617.852 1123.42 622.473 1116.98 629.504 1116.98C636.974 1116.98 647.261 1126.21 646.94 1152.13C646.647 1175.86 638.928 1184.06 631.018 1184.06ZM639.395 1193.73C638.662 1193.73 637.935 1193.29 637.503 1192.7C637.36 1192.41 637.219 1191.97 637.225 1191.53C637.234 1190.8 637.68 1190.21 638.272 1189.77C644.327 1185.82 649.87 1175.86 651.257 1170.29C651.416 1169.27 652.304 1168.54 653.329 1168.54C654.501 1168.54 655.514 1169.56 655.499 1170.73L655.347 1171.17C653.796 1178.2 648.104 1188.31 640.572 1193.29C640.275 1193.58 639.834 1193.73 639.395 1193.73ZM743.572 1227.13C748.113 1227.13 752.67 1225.81 756.661 1222.88C761.687 1219.22 763.948 1214.09 764.313 1208.23L764.324 1207.35C764.382 1202.66 763.273 1197.54 761.138 1192.56C757.302 1182.89 756.574 1170.73 756.722 1158.72C756.963 1139.24 757.587 1136.17 758.401 1117.71C759.774 1089.59 762.484 1060 763.632 1038.17L763.647 1037C763.786 1025.72 754.684 1015.47 742.819 1015.47H742.233C731.1 1015.47 720.879 1024.7 720.734 1036.42C719.347 1065.71 716.398 1090.91 714.866 1131.92L714.361 1149.05C714.227 1159.89 714.395 1170 715.451 1179.37C716.592 1193.73 717.322 1205.74 726.544 1218.19C730.428 1223.9 736.691 1226.83 742.986 1227.13H743.572ZM727.58 1075.09H727.434C726.262 1075.09 725.249 1074.06 725.264 1072.89L725.788 1054.14C726.172 1046.82 726.827 1041.25 728.051 1037C729.896 1029.97 733.898 1026.16 739.933 1023.82C740.081 1023.67 740.374 1023.67 740.667 1023.67H740.813C742.13 1023.82 742.85 1024.85 742.837 1025.87C742.68 1026.75 742.231 1027.48 741.347 1027.92C736.05 1029.83 733.827 1031.88 731.993 1038.03C731.067 1041.84 730.565 1046.96 730.181 1054.29C729.973 1059.27 729.6 1065.71 729.508 1073.18C729.495 1074.21 728.606 1075.09 727.58 1075.09ZM725.871 1094.86C724.846 1094.86 723.978 1093.98 723.992 1092.81C724.48 1088.85 724.207 1087.24 724.705 1082.56C724.719 1081.38 725.757 1080.36 726.929 1080.36C728.099 1080.51 728.967 1081.38 728.955 1082.41L728.24 1092.81C728.226 1093.98 727.043 1094.86 725.871 1094.86ZM756.463 1203.4C755.73 1203.4 755.15 1202.96 754.864 1202.37C751.86 1196.51 747.325 1184.21 747.493 1170.59L747.683 1167.07C747.698 1165.9 748.734 1165.02 749.906 1165.02C751.517 1165.02 751.94 1166.34 751.922 1167.8L751.747 1170.15C751.587 1183.04 755.98 1195.05 758.552 1200.32L758.834 1201.2C758.823 1202.08 758.374 1202.81 757.638 1203.1C757.195 1203.4 756.902 1203.4 756.463 1203.4ZM851.967 1227.42C861.195 1227.42 870.885 1225.66 880.741 1222.29C889.714 1219.22 895.531 1210.87 895.641 1201.93C895.67 1199.59 895.261 1197.1 894.411 1194.75C891.444 1185.97 883.163 1180.4 874.374 1180.4C871.884 1180.4 869.388 1180.84 867.033 1181.72C860.266 1184.06 855.127 1185.09 851.025 1185.09C844.726 1185.09 840.945 1182.89 837.614 1179.81C837.18 1179.37 836.749 1178.64 836.171 1178.06C855.389 1175.71 870.11 1169.85 880.773 1160.48C894.839 1148.32 899.44 1131.62 899.587 1119.76C899.778 1104.23 890.863 1090.76 880.987 1083.87C871.113 1076.84 860.601 1074.06 850.2 1074.06C815.337 1074.06 785.199 1106.58 784.665 1149.79C784.377 1173.08 791.27 1196.07 808.508 1211.75C819.809 1221.85 835.121 1227.42 851.967 1227.42ZM802.182 1119.17L801.451 1119.03C800.576 1118.74 800.145 1118 800.156 1117.12L800.314 1116.24C808.318 1096.76 824.759 1082.12 842.63 1082.12H842.923C843.802 1082.12 844.681 1082.12 845.558 1082.26C846.876 1082.26 847.596 1083.29 847.58 1084.61C847.421 1085.63 846.531 1086.51 845.505 1086.51L842.724 1086.36C827.05 1086.36 811.653 1099.55 804.249 1117.86C803.947 1118.59 803.061 1119.17 802.182 1119.17ZM848.631 1141.73H848.192C847.022 1141.58 846.154 1140.71 846.17 1139.39C846.185 1138.22 847.221 1137.34 848.393 1137.34H848.832C853.666 1137.34 857.95 1134.41 860.782 1130.45C862.425 1127.96 863.34 1125.03 863.372 1122.4C863.392 1120.79 863.119 1119.17 862.403 1117.86L862.123 1116.83C862.137 1115.66 863.029 1114.63 864.347 1114.63C865.08 1114.63 865.805 1115.22 866.237 1115.81C867.237 1117.86 867.794 1120.2 867.767 1122.4C867.722 1126.06 866.36 1129.57 864.269 1132.8C860.838 1137.78 855.223 1141.73 848.631 1141.73ZM829.518 1135.58C833.348 1121.96 842.637 1117.12 849.668 1117.12C853.623 1117.12 856.672 1119.32 856.636 1122.25C856.515 1132.06 836.549 1135.58 829.518 1135.58ZM794.045 1137.48L793.315 1137.34C792.439 1137.04 791.862 1136.31 791.875 1135.29L792.031 1134.55C793.094 1131.48 794.308 1128.11 795.666 1124.89C795.97 1124.01 796.709 1123.42 797.588 1123.42C798.76 1123.42 799.773 1124.45 799.758 1125.62L799.603 1126.35C798.391 1129.57 797.031 1132.94 796.116 1135.87C795.812 1136.75 794.924 1137.48 794.045 1137.48ZM884.338 1191.97C883.752 1191.97 883.17 1191.68 882.738 1191.09C880.863 1188.75 878.088 1188.02 875.014 1187.87C873.551 1187.72 872.978 1186.7 872.99 1185.67C873.003 1184.65 873.602 1183.62 874.92 1183.62H875.213C878.873 1183.77 883.255 1184.79 886.14 1188.46C886.427 1188.9 886.568 1189.34 886.563 1189.77C886.554 1190.51 886.254 1191.09 885.662 1191.53C885.366 1191.83 884.778 1191.97 884.338 1191.97Z" fill="white"/>
<path d="M150.035 1227.89C149.696 1228.71 149.4 1229.55 149.15 1230.42C146.42 1237.68 142.709 1242.48 138.015 1244.81C132.933 1247.51 127.403 1249.03 121.763 1249.26C116.851 1249.61 111.915 1249.28 107.066 1248.3C103.468 1247.58 101.263 1245.95 100.451 1243.43C99.6378 1240.91 99.7366 1236.24 100.725 1229.43C101.03 1227.11 101.37 1224.6 101.743 1221.91C102.805 1214.37 103.882 1205.01 104.976 1193.84C106.07 1182.67 106.818 1169.83 107.219 1155.33C107.42 1137.42 106.886 1119.2 105.617 1100.69C104.7 1085.28 102.916 1069.94 100.275 1054.77C99.1674 1048.85 97.5463 1043.06 95.4352 1037.49C94.2326 1034.48 92.7763 1031.61 91.0861 1028.91C89.9826 1027.43 89.2197 1025.67 88.8643 1023.79C88.5069 1021.2 89.5025 1018.41 91.8514 1015.43C94.2002 1012.44 98.1506 1009.93 103.702 1007.88C110.135 1005.74 116.867 1004.91 123.579 1005.42C130.64 1005.65 137.52 1008.04 143.466 1012.33C145.624 1014.03 147.502 1016.15 149.014 1018.57C155.049 1013.73 161.579 1009.7 168.469 1006.57C178.504 1002.27 189.347 1000.79 200.045 1002.26C209.865 1003.54 219.279 1007.43 227.497 1013.6C234.941 1019.27 240.767 1027.21 244.27 1036.46C247.758 1045.74 249.005 1055.86 247.887 1065.81C246.568 1076.42 243.11 1086.55 237.772 1095.43C237.087 1096.78 236.291 1098.06 235.393 1099.24C237.472 1100.56 239.482 1102.02 241.413 1103.59C249.955 1110.6 256.587 1120.11 260.56 1131.07C264.578 1142.21 266.022 1154.28 264.759 1166.17C263.339 1178.85 259.412 1191.01 253.263 1201.76C247.166 1212.75 238.681 1221.84 228.587 1228.2C218.018 1234.17 206.348 1237.35 194.473 1237.5C182.692 1237.85 170.927 1236.04 159.647 1232.15C156.366 1230.96 153.155 1229.54 150.035 1227.89ZM164.95 1056.98C164.758 1057.35 164.587 1057.72 164.437 1058.11C162.488 1062.95 161.415 1068.18 161.28 1073.5C161.236 1078.39 162.904 1082.03 166.284 1084.44C170.103 1086.51 174.974 1086.89 180.897 1085.56C186.711 1084.31 192.046 1081.14 196.212 1076.47C199.995 1071.92 202.27 1066.07 202.661 1059.87C203.102 1053.64 201.918 1048.47 199.11 1044.35C197.721 1042.5 195.971 1041.04 193.997 1040.07C192.022 1039.1 189.875 1038.65 187.725 1038.76C183.011 1038.79 178.375 1040.96 173.817 1045.26C170.526 1048.83 167.557 1052.76 164.95 1056.98ZM170.051 1155.58C169.903 1155.97 169.728 1156.34 169.528 1156.7C167.291 1162.66 166.057 1169.02 165.888 1175.48C165.842 1181.38 167.781 1185.67 171.705 1188.35C176.092 1190.93 181.655 1191.42 188.392 1189.81C195.022 1188.27 201.086 1184.58 205.828 1179.2C210.079 1173.56 212.594 1166.54 213.007 1159.16C213.479 1151.71 212.131 1145.52 208.964 1140.61C207.456 1138.35 205.474 1136.55 203.195 1135.35C200.915 1134.15 198.408 1133.6 195.898 1133.74C190.434 1133.85 185.168 1136.43 180.099 1141.47C176.259 1145.71 172.886 1150.45 170.051 1155.58Z" fill="white"/>
<path d="M156.017 1032.42C163.813 1023.4 173.266 1017.48 183.29 1015.34C185.544 1014.87 184.944 1010.17 182.678 1010.64C172.051 1012.94 162.034 1019.23 153.77 1028.8C153.427 1029.23 153.215 1029.81 153.18 1030.43C153.144 1031.05 153.286 1031.66 153.578 1032.13C153.869 1032.6 154.286 1032.89 154.741 1032.95C155.196 1033 155.654 1032.81 156.017 1032.42Z" fill="#B58CF4"/>
<path d="M102.049 1022.15C108.226 1043.25 111.951 1065.6 113.094 1088.42C113.395 1094.42 113.506 1100.43 113.427 1106.45C113.39 1109.97 117.411 1110.38 117.451 1106.83C117.738 1082.75 115.219 1058.86 109.986 1036.05C108.712 1030.53 107.288 1025.08 105.715 1019.7C104.769 1016.44 101.095 1018.88 102.05 1022.14L102.049 1022.15Z" fill="#B58CF4"/>
<path d="M200.04 1197.12C205.368 1194.76 210.145 1190.68 213.904 1185.29C217.662 1179.9 220.273 1173.39 221.481 1166.38C221.673 1165.31 220.816 1164.31 220.053 1164.23C219.638 1164.2 219.228 1164.37 218.909 1164.72C218.59 1165.07 218.386 1165.55 218.341 1166.08C217.157 1172.38 214.729 1178.2 211.289 1183.01C207.849 1187.81 203.512 1191.43 198.694 1193.52C198.316 1193.75 198.025 1194.17 197.885 1194.68C197.745 1195.18 197.766 1195.73 197.944 1196.21C198.13 1196.67 198.443 1197.01 198.821 1197.18C199.199 1197.34 199.616 1197.32 199.987 1197.12L200.04 1197.12Z" fill="#B58CF4"/>
<path d="M116.709 1117.49L116.482 1136.35C116.435 1137.15 116.552 1137.93 116.809 1138.53C117.066 1139.12 117.443 1139.49 117.862 1139.54C118.285 1139.58 118.712 1139.29 119.05 1138.75C119.389 1138.21 119.613 1137.45 119.674 1136.65L119.901 1117.79C119.948 1116.98 119.831 1116.2 119.574 1115.61C119.317 1115.01 118.94 1114.65 118.521 1114.59C117.756 1114.59 116.731 1115.78 116.709 1117.49Z" fill="#B58CF4"/>
</svg>
